<svg width="186" height="83" viewBox="0 0 186 83" fill="none" xmlns="http://www.w3.org/2000/svg">
<path d="M38.3818 2.9831L11.2036 14.0494C3.56621 17.1591 -0.738043 25.3015 0.993479 33.3639L8.76925 69.5696C10.4518 77.4042 17.3771 83 25.3903 83H60.4757H135.409C137.13 83 138.841 82.7387 140.483 82.225L174.074 71.7192C181.17 69.5001 186 62.9283 186 55.4942V37.7586C186 33.8935 184.683 30.1437 182.266 27.1275L169.174 10.7917C166.355 7.27401 162.255 5.02002 157.774 4.52542L122.256 0.604814C118.695 0.21168 115.1 0.953916 111.986 2.72553L90.7144 14.8252C85.6755 17.6915 79.5234 17.7925 74.3931 15.0931L52.7086 3.68343C48.2701 1.34803 43.0269 1.09174 38.3818 2.9831Z" fill="#F8BC24"/>
</svg>
